<svg xmlns="http://www.w3.org/2000/svg" xmlns:xlink="http://www.w3.org/1999/xlink" width="863.501" height="527.891" viewBox="0 0 863.501 527.891">
  <defs>
    <linearGradient id="linear-gradient" x1="0.509" y1="1.066" x2="0.5" y2="0.689" gradientUnits="objectBoundingBox">
      <stop offset="0" stop-color="#f9e6d9"/>
      <stop offset="0.121" stop-color="#fbf1ea"/>
      <stop offset="0.27" stop-color="#fdf9f6"/>
      <stop offset="0.475" stop-color="#fefdfd"/>
      <stop offset="1" stop-color="#fff"/>
    </linearGradient>
    <linearGradient id="linear-gradient-2" x1="0.506" y1="1.034" x2="0.496" y2="0.634" xlink:href="#linear-gradient"/>
    <linearGradient id="linear-gradient-3" y1="0.5" x2="1" y2="0.5" gradientUnits="objectBoundingBox">
      <stop offset="0" stop-color="#f7be86"/>
      <stop offset="0.329" stop-color="#f7bc83"/>
      <stop offset="0.545" stop-color="#f7b67a"/>
      <stop offset="0.728" stop-color="#f7ac6b"/>
      <stop offset="0.891" stop-color="#f79e56"/>
      <stop offset="1" stop-color="#f79244"/>
    </linearGradient>
    <linearGradient id="linear-gradient-6" x1="0.507" y1="1.067" x2="0.497" y2="0.553" xlink:href="#linear-gradient"/>
  </defs>
  <g id="error-page-img" transform="translate(-409.251 -190.173)">
    <g id="Group_170124" data-name="Group 170124" transform="translate(373.14 147.32)">
      <g id="OBJECTS" transform="translate(139.104 42.855)">
        <g id="Group_170108" data-name="Group 170108" transform="translate(0 63.165)">
          <path id="Path_85756" data-name="Path 85756" d="M223.626,457.822H156.738c-17.9-18.593-22.685-48.221-11.994-71.711,10.191-22.392,32.071-37.183,45.328-57.907,28.293-44.226,14.617-110.114,53.065-145.867,19.218-17.871,46.853-23.04,73.014-25.129s53.2-2.032,77.39-12.2c29.834-12.539,52.323-39.471,83.053-49.619,34.5-11.4,75.781,2.824,95.946,33.054,12.617,18.915,17.378,42.68,32.3,59.837,24.128,27.743,66.634,29.9,96.724,51.022A89.937,89.937,0,0,1,738.8,302.534c3.212,30.278-8.284,64.669,9.871,89.114,8.853,11.919,23.206,18.638,32.745,30.017,9.5,11.337,12.181,21.668,9.19,36.158Z" transform="translate(-139.104 -91.474)" fill="rgba(252,79,25,0.99)" opacity="0.37"/>
          <path id="Path_85757" data-name="Path 85757" d="M236.783,457.822H169.9c-17.9-18.593-22.687-48.221-12-71.711,10.191-22.392,32.072-37.183,45.329-57.907,28.291-44.226,14.617-110.114,53.063-145.867,19.218-17.871,46.853-23.04,73.014-25.129s53.2-2.032,77.391-12.2c29.834-12.539,52.323-39.471,83.052-49.619,34.506-11.4,75.783,2.824,95.946,33.054,12.618,18.915,17.378,42.68,32.3,59.837,24.128,27.743,66.633,29.9,96.726,51.022a89.936,89.936,0,0,1,37.233,63.231c3.212,30.278-8.282,64.669,9.871,89.114,8.853,11.919,23.206,18.638,32.745,30.017,9.5,11.337,12.181,21.668,9.191,36.158Z" transform="translate(-135.167 -91.474)" fill="rgba(252,79,25,0.2)"/>
        </g>
        <g id="Group_170109" data-name="Group 170109" transform="translate(89.033 240.004)">
          <path id="Path_85760" data-name="Path 85760" d="M365.243,380.4H344.374v36.68H293.825V380.4H218.258V342.816l78.807-115.229h47.309V342.168h20.869Zm-71.418-38.237v-22.03q0-6.223.453-16.786t.713-11.082h-1.425a136.9,136.9,0,0,1-9.98,18.664l-21,31.238Z" transform="translate(-204.454 -227.587)" fill="#ff9843"/>
          <path id="Path_85761" data-name="Path 85761" d="M354.617,380.412H333.749v36.682H283.2V380.412H207.633V342.824L286.439,227.6h47.31V342.177h20.868ZM283.2,342.177V320.142q0-6.223.453-16.786t.713-11.082H282.94a136.994,136.994,0,0,1-9.98,18.664l-21,31.238Z" transform="translate(-207.633 -227.584)" fill="url(#linear-gradient)"/>
        </g>
        <g id="Group_170110" data-name="Group 170110" transform="translate(414.693 248.01)">
          <path id="Path_85762" data-name="Path 85762" d="M620.172,379.831l-7.263-37.547-13.551,2.624-6.938,1.338-21.749-112.5-46.459,8.991L468.724,370.828l7.133,36.91,74.2-14.356,4.222,21.866h51.487l-6.08-31.454,6.938-1.338Zm-90.931-21.359-17.111,3.3,12.213-28.816,2.469-5.833a137.464,137.464,0,0,0,6.249-20.229l1.4-.26q-.156.546,1.4,11.017,1.559,10.446,2.741,16.565l4.183,21.632Z" transform="translate(-455.173 -233.749)" fill="#ff9843"/>
          <path id="Path_85763" data-name="Path 85763" d="M609.742,381.848l-7.263-37.534-20.488,3.963-21.762-112.5-32.9,6.353-13.551,2.624-55.489,128.1,7.133,36.9,13.551-2.624,60.647-11.719,3.716,19.228h51.487l-5.574-28.829,13.551-2.624Zm-82.279-49.5c.247,1.416.494,2.7.715,3.885l4.183,21.632L501.687,363.8l14.694-34.663a136.823,136.823,0,0,0,6.249-20.216l1.4-.273q-.156.565,1.4,11.017,1.12,7.449,2.034,12.684Z" transform="translate(-458.294 -233.142)" fill="url(#linear-gradient-2)"/>
        </g>
        <g id="Group_170115" data-name="Group 170115" transform="translate(42.128)">
          <g id="Group_170111" data-name="Group 170111" transform="translate(71.727 149.764)">
            <path id="Path_85764" data-name="Path 85764" d="M362.46,341.758H331.6l-19.609-143.55s-28.328-30.946-60.847-36.74l30.973-3.339,69.806,1.9Z" transform="translate(-219.436 -158.129)" fill="#184992"/>
            <path id="Path_85765" data-name="Path 85765" d="M245.776,240.038s-17.537,25.666-9.752,47.7l32.626-47.7-4.237-5.69Z" transform="translate(-224.556 -135.324)" fill="#184992"/>
            <path id="Path_85766" data-name="Path 85766" d="M315.572,299.468l-1.051,6.627s-9.3,1.3-9.816,14.577h24.18l13.139-12.826,1.226-8.379Z" transform="translate(-203.411 -115.84)" fill="#184992"/>
            <path id="Path_85767" data-name="Path 85767" d="M301.567,197.337,262.89,195.9l6.286,59.229-26.215,9.4-15.11-73.145a22.6,22.6,0,0,1,19.059-29.427l11.524-1.247h.013c32.519,5.794,60.847,36.74,60.847,36.74Z" transform="translate(-226.738 -157.36)" fill="#184992"/>
          </g>
          <g id="Group_170112" data-name="Group 170112" transform="translate(0 6.584)">
            <path id="Path_85768" data-name="Path 85768" d="M245.185,65.64v1.721l-2.1.269a8.167,8.167,0,0,0-1.686-2.588c-2.8-2.414-4.745-4.311-6.748-3.152-1.511.88-1.394,5.014-1.252,6.97l-5.7.726-50.534,6.408-.023-.094c3.279-.773,5.822-6.653,5.822-13.8,0-7.052-2.472-12.862-5.681-13.775l67.9,7.66V65.64Z" transform="translate(-169.852 -47.802)" fill="#839dc2"/>
            <path id="Path_85769" data-name="Path 85769" d="M182.587,52.056a7.047,7.047,0,0,0-.387.644c-.726,1.4-1.065,3.01-1.967,4.3a5.824,5.824,0,0,1-2.683,2.119,15.345,15.345,0,0,1-3.6.679,8.339,8.339,0,0,0-2.379.609c.387-6.747,3.047-11.994,6.314-12.171l1.055.118C180.35,48.752,181.614,50.087,182.587,52.056Z" transform="translate(-171.517 -47.829)" fill="#bdbffc"/>
            <path id="Path_85770" data-name="Path 85770" d="M184.638,60.183c-.837,1.113-1.237,2.507-2.015,3.655a6.59,6.59,0,0,1-3.95,2.695c-1.473.327-3.065.152-4.409.82a4.313,4.313,0,0,0-1.65,1.534,25.967,25.967,0,0,1-1.085-7.637c0-.586.012-1.16.059-1.723a8.434,8.434,0,0,1,2.394-.609,15.529,15.529,0,0,0,3.619-.679,5.855,5.855,0,0,0,2.7-2.119c.907-1.289,1.249-2.895,1.979-4.3a7.046,7.046,0,0,1,.39-.644C183.813,53.472,184.663,60.16,184.638,60.183Z" transform="translate(-171.53 -46.949)" fill="#bdbffc"/>
            <path id="Path_85771" data-name="Path 85771" d="M184.391,59.192c0,7.146-2.543,13.026-5.822,13.8a3.122,3.122,0,0,1-.738.094c-2.285,0-4.3-2.484-5.471-6.256A4.3,4.3,0,0,1,174,65.294c1.336-.668,2.917-.492,4.381-.82a6.548,6.548,0,0,0,3.925-2.695c.773-1.147,1.171-2.541,2-3.655.025-.023.036-.047.06-.07C184.379,58.43,184.391,58.8,184.391,59.192Z" transform="translate(-171.282 -44.891)" fill="#bdbffc"/>
            <path id="Path_85772" data-name="Path 85772" d="M260.313,56.315h20.43a17.266,17.266,0,0,0-4.768,2.6c-.644.6-.363,1.686.434,3.08h-16.1Z" transform="translate(-144.966 -45.412)" fill="#839dc2"/>
            <path id="Path_85773" data-name="Path 85773" d="M298.2,59.736V62H287.132A41.577,41.577,0,0,1,285,56.315h13.2Z" transform="translate(-137.579 -45.412)" fill="#839dc2"/>
            <path id="Path_85774" data-name="Path 85774" d="M269.529,62.306V63.56H229.514V55.278h40.015Z" transform="translate(-154.181 -45.722)" fill="#839dc2"/>
            <path id="Path_85775" data-name="Path 85775" d="M235.126,76.747l-8.809,6.7s-10.7-11.21-10.261-16.9l5.7-.726c-.142-1.957-.259-6.091,1.252-6.97,2-1.159,3.948.738,6.748,3.152a8.167,8.167,0,0,1,1.686,2.588C233.509,69,235.126,76.747,235.126,76.747Z" transform="translate(-158.212 -44.759)" fill="url(#linear-gradient-3)"/>
            <path id="Path_85776" data-name="Path 85776" d="M185.855,48.5c-.589-1.289-2.492-.188-1.909,1.089a26.017,26.017,0,0,1-1.184,24.189,1.1,1.1,0,0,0,1.9,1.1A28.348,28.348,0,0,0,185.855,48.5Z" transform="translate(-168.215 -47.923)" fill="#184992"/>
          </g>
          <g id="Group_170113" data-name="Group 170113" transform="translate(64.275 15.53)">
            <path id="Path_85777" data-name="Path 85777" d="M307.736,79.556V86.35l-8.13-7.684Z" transform="translate(-197.485 -47.671)" fill="#ff8526"/>
            <path id="Path_85778" data-name="Path 85778" d="M312.556,87.7l8.189,7.732,7.813,7.379s17.9-12.535,24.845-12.64a8.021,8.021,0,0,1,1.417.094c6.127.868,9.875,7.954,8.8,14.749-1.159,7.321-.948,15.427-8,16.739S317.5,130.6,317.5,130.6L283.494,84.475l4.007-2.8,8.926-6.243,1.8-1.265,3.924,3.7,2.272,2.144Z" transform="translate(-202.306 -49.017)" fill="#ff8526"/>
            <path id="Path_85779" data-name="Path 85779" d="M325.93,80.442l20.312,7.942a8.023,8.023,0,0,0-1.417-.094c-6.947.105-24.845,12.64-24.845,12.64l-7.813-7.379Z" transform="translate(-193.727 -47.139)" fill="#ff8526"/>
            <path id="Path_85780" data-name="Path 85780" d="M374.314,122.235l-11.8,32.12-1.581,31.276s-1.382.246-3.785.586c-11.245,1.6-44.946,5.446-66.019-2.484l8.211-38.855-3.8-30.643-45.8,5.06L221,82.161l3.83-2.917,8.809-6.7L260.8,99.076,303.317,80.5a15.793,15.793,0,0,0,2.882,1.663l-4.007,2.8L336.2,131.09S367.262,123.558,374.314,122.235Z" transform="translate(-221.003 -49.503)" fill="#ff8526"/>
            <path id="Path_85781" data-name="Path 85781" d="M299.837,81.224l-8.926,6.243A15.8,15.8,0,0,1,288.03,85.8c-2.015-1.441-4.393-3.818-4.686-7.169-.386-4.5-7.977-11.819-10.46-16.188-.8-1.394-1.078-2.484-.434-3.082a17.3,17.3,0,0,1,4.768-2.6c4.72-1.875,11.011-3.151,11.585-.234a2.259,2.259,0,0,0,.058.234,41.577,41.577,0,0,0,2.132,5.681C294.226,69.99,299.837,81.224,299.837,81.224Z" transform="translate(-205.716 -54.809)" fill="url(#linear-gradient-3)"/>
            <path id="Path_85782" data-name="Path 85782" d="M343.821,151.5c-52.03-11.041-60.327-69.4-60.327-69.4L317.5,128.264l38.116-8.889Z" transform="translate(-202.306 -46.643)" fill="rgba(252,79,25,0.99)"/>
          </g>
          <g id="Group_170114" data-name="Group 170114" transform="translate(151.422)">
            <path id="Path_85783" data-name="Path 85783" d="M330.283,60.195c1.1-.3,2.214-.082,2.658,1.675,1.032,4.018-3.479,8.845-3.479,8.845l1.113,17.839-13.764,13.109L322.2,86.246l-13.577.89-8.129-.89L298.221,84.1s-1.581-14.794-1.581-23.474a28.086,28.086,0,0,1,.292-4.768l.07-.422c9.513,1.606,22.714-2.107,22.714-2.107s1.85,18.016,4.381,18.332,3.316-9.793,3.316-9.793a8.634,8.634,0,0,1,2.87-1.673Z" transform="translate(-285.519 -39.721)" fill="url(#linear-gradient-3)"/>
            <path id="Path_85784" data-name="Path 85784" d="M332.949,50.233l-.105,13.1A8.634,8.634,0,0,0,329.974,65s-.786,10.1-3.316,9.793-4.381-18.332-4.381-18.332-13.2,3.713-22.714,2.107v-.012a12.774,12.774,0,0,1-7.333-3.349c-7.274-7.661-4.743-12.007,5.681-9.641S329.951,35.391,332.949,50.233Z" transform="translate(-288.08 -42.855)" fill="#111023"/>
            <path id="Path_85785" data-name="Path 85785" d="M319.44,78.666l-5.388,15.416-8.188-7.731V79.556Z" transform="translate(-282.759 -32.141)" fill="#f79244"/>
            <path id="Path_85786" data-name="Path 85786" d="M296.344,56.989a7.935,7.935,0,0,1,6.473-.383c1.345.485.331,2.463-1,1.984a5.46,5.46,0,0,0-4.265.261C296.291,59.485,295.067,57.63,296.344,56.989Z" transform="translate(-285.769 -38.895)" fill="#111023"/>
            <ellipse id="Ellipse_3435" data-name="Ellipse 3435" cx="1.597" cy="2.37" rx="1.597" ry="2.37" transform="translate(29.064 21.078) rotate(-2.993)" fill="#111023"/>
            <path id="Path_85787" data-name="Path 85787" d="M315.536,56.5a7.933,7.933,0,0,0-6.477.294c-1.288.622-.073,2.484,1.2,1.87a5.465,5.465,0,0,1,4.269-.186C315.85,58.978,316.873,57.005,315.536,56.5Z" transform="translate(-281.967 -38.938)" fill="#111023"/>
            <path id="Path_85788" data-name="Path 85788" d="M302.07,68.855c.709-3.357,2.445-6.774,3.617-10,.244-.672,1.234-.165.993.5l-2.218,6.1a13.867,13.867,0,0,0-.951,2.615c-.242,2.535.917,2.336,2.229,2.947.65.3.148,1.293-.5.993C303.629,71.26,301.583,71.159,302.07,68.855Z" transform="translate(-283.916 -38.163)" fill="#f79244"/>
            <path id="Path_85789" data-name="Path 85789" d="M302.148,61.412a7.013,7.013,0,0,0-3.547-1.556c-.817-.105-1.156,1.151-.327,1.258a6.13,6.13,0,0,1,1.9.564l-2.079.676c-.794.257-.461,1.514.335,1.255l3.423-1.112C302.27,62.36,302.556,61.739,302.148,61.412Z" transform="translate(-285.22 -37.771)" fill="#111023"/>
          </g>
        </g>
        <g id="Group_170116" data-name="Group 170116" transform="translate(83.521 429.513)">
          <path id="Path_85790" data-name="Path 85790" d="M733.936,373.453H212.619s-28.05,18.623,13.653,21.775,106.748,6.132,105.143,20.321-39.267,11.386-39.267,36.436,173.7,19.268,173.7,19.268,98.127,1.285,112.1-15.3-39.558-31.764-29.843-38.3,80.252,13.079,90.762-2.8-2.1-25.926,17.285-28.028S730.666,392.317,733.936,373.453Z" transform="translate(-203.391 -373.453)" fill="#ff9a88" opacity="0.5"/>
          <ellipse id="Ellipse_3437" data-name="Ellipse 3437" cx="39.414" cy="11.211" rx="39.414" ry="11.211" transform="translate(451.717 21.775)" fill="#ffccc3"/>
          <ellipse id="Ellipse_3438" data-name="Ellipse 3438" cx="34.451" cy="8.525" rx="34.451" ry="8.525" transform="translate(37.023 34.154)" fill="#ffccc3"/>
          <ellipse id="Ellipse_3439" data-name="Ellipse 3439" cx="39.129" cy="7.532" rx="39.129" ry="7.532" transform="translate(229.818 68.371)" fill="#e9fdff"/>
        </g>
        <g id="Group_170119" data-name="Group 170119" transform="translate(254.593 198.589)">
          <g id="Group_170117" data-name="Group 170117" transform="translate(0 91.806)">
            <path id="Path_85791" data-name="Path 85791" d="M481.578,304.605q-12.044-27.537-45.173-34.3-3.605-.741-7.055-1.169-29.232-3.7-48.213,13.953-21.242,19.722-31.363,69.26-6.2,30.343-3.456,52.5H394.6q-.916-12.94,5.093-42.3,6.489-31.746,12.862-42.887,3.7-6.47,8.38-8.536a11.675,11.675,0,0,1,7.263-.7q9.276,1.91,10.679,15.084,1.4,13.193-4.9,44.043-4.736,23.132-9.5,35.3h52.93a232.792,232.792,0,0,0,6.47-25.1q1.851-9.062,2.91-17.383Q491.329,326.9,481.578,304.605Z" transform="translate(-331.95 -265.739)" fill="#ff9843"/>
            <path id="Path_85792" data-name="Path 85792" d="M471.168,302.485q-10.816-24.73-38.7-32.714-3.138-.9-6.483-1.585-34.026-6.957-55.268,12.784-21.222,19.741-31.35,69.26-2.066,10.075-3.131,19.267-2.358,20.17.052,35.988H384.5c-.065-.312-.1-.624-.143-.948q-1.52-12.609,4.911-44.108,6.49-31.746,12.875-42.874,6.373-11.147,15.642-9.237a11.365,11.365,0,0,1,6.262,3.443c2.4,2.572,3.859,6.444,4.417,11.628q1.4,13.193-4.9,44.043-5.3,25.88-10.64,38.054H466.1a235.387,235.387,0,0,0,7.366-27.842Q483.192,330.016,471.168,302.485Z" transform="translate(-335.065 -266.374)" fill="url(#linear-gradient-6)"/>
          </g>
          <g id="Group_170118" data-name="Group 170118" transform="translate(94.952)">
            <path id="Path_85793" data-name="Path 85793" d="M486.154,199.815l-.325.247-33.948,26.426-21.19,16.487L413.048,291.8l-4.9-1.767,18.176-50.24,56.645-44.082Z" transform="translate(-408.15 -195.71)" fill="#2a2a2a"/>
          </g>
          <path id="Path_85794" data-name="Path 85794" d="M492.349,308.388c-3.859,4.586-9.12,7.73-14.278,10.783l-.351-.611c2.04-2.611,4.2-5.678,3.586-8.939-.429-2.222-2.066-3.989-3.742-5.483-2.845-2.507-6.015-4.625-8.731-7.263s-5.015-5.95-5.457-9.7c-.572-4.937,2.092-9.6,3.131-14.46a9.784,9.784,0,0,0-.221-5.859c-1.741-4.131-7-5.08-11.173-6.743-3.729-1.507-7.237-4.3-8.276-8.185-1.507-5.639,2.507-11.407,1.962-17.214a11.451,11.451,0,0,0-6.99-9.224l33.948-26.426c5.755,4.989,10.718,11.6,10.783,19.15.026,4.781-1.91,9.328-3.287,13.9a12.41,12.41,0,0,0-.676,5.652c.533,2.884,2.832,5.067,4.95,7.107,4.378,4.2,8.783,9.3,8.7,15.37-.078,6.808-5.885,12.875-4.872,19.6.65,4.3,3.963,7.73,5.288,11.862C498.468,297.423,496.208,303.8,492.349,308.388Z" transform="translate(-303.127 -194.708)" fill="#184992"/>
        </g>
      </g>
    </g>
    <g id="Group_166579" data-name="Group 166579" transform="translate(409.247 530.514)">
      <path id="Path_81022" data-name="Path 81022" d="M569.443,1186.69s-8.14,6.053-9.727,5.686,5.949-6.534,5.949-6.534c-2.836-1.364-11.651-.509-11.651-.509s-2.936,9.469-4.384,8.723,3.028-8.252,3.028-8.252c-3.159-.19-7.032,2.155-7.032,2.155-5.3,4.188.349,10.782.349,10.782a16.119,16.119,0,0,1-4.437,6.228,13.993,13.993,0,0,0-5.115,9.858l.868.078s1.376-5.887,3.877-8.671c.1-.1.239-.245.413-.421.407-.377.693-.661.885-.871,1.245-1.2,2.965-2.72,3.794-2.867a1.6,1.6,0,0,1-.035-.417c.011.133.023.271.035.417.284,3.332,6.749,6.243,10.727,6.841s2.748-1.036,1.378-3.461-5.708-3.509-6.7-4.625,1.056-1.119,3.453-.024,2.724,4.013,6.569,5.854,9.629-4.538,9.629-4.538c-3.064-.155-7.439-3.483-7.281-4.5s7.427,1.756,8.669,1.889,4.07-1.412,4.507-6.417S569.443,1186.69,569.443,1186.69Z" transform="translate(-493.234 -1152.816)" fill="#82b378"/>
      <g id="Group_166577" data-name="Group 166577" transform="translate(0 14.352)">
        <path id="Path_81023" data-name="Path 81023" d="M271.043,1084.67s8.991-5.035,4.8-11.868c0,0-3.356-4.2-6.953-5.275,0,0,1.918,10.19,0,10.429s-1.319-11.508-1.319-11.508-9.47-4.555-13.187-4.2c0,0,5.874,9.95,3.956,9.71s-8.511-10.309-8.511-10.309-9.71-1.8-11.268,3.956.959,8.631,2.4,8.991,10.669.24,10.429,1.438-6.473,3.117-9.95,2.038c0,0,3.836,9.47,8.871,8.991s6.593-3.6,9.71-3.836,5.394.6,3.836,1.438-6.833.275-9.35,2.415-4.555,3.459.12,4.418,13.067.36,14.745-3.237Z" transform="translate(-238.065 -1061.39)" fill="#a8d29f"/>
        <path id="Path_81024" data-name="Path 81024" d="M302.553,1128.99a19.123,19.123,0,0,1-2.4-8.751c-2.877-9.111-28.051-17.262-28.051-17.262,32.007,12.947,26.373,20.859,26.373,20.859.863.5,2.156,2.9,3.053,4.743.128.313.33.747.631,1.335h0c.122.266.219.484.287.636,1.648,4.123.775,11.244.775,11.244l1,.268a16.6,16.6,0,0,0-1.668-13.072Z" transform="translate(-267.177 -1096.96)" fill="#82b378"/>
      </g>
      <g id="Group_166578" data-name="Group 166578" transform="translate(39.49)">
        <path id="Path_81025" data-name="Path 81025" d="M518.678,992.931s-11.851-6.637-6.321-15.644c0,0,4.424-5.531,9.165-6.953,0,0-2.528,13.432,0,13.748s1.738-15.17,1.738-15.17,12.484-6,17.382-5.531c0,0-7.743,13.116-5.215,12.8s11.219-13.59,11.219-13.59,12.8-2.37,14.854,5.215-1.264,11.377-3.16,11.851-14.064.316-13.748,1.9,8.533,4.109,13.116,2.686c0,0-5.057,12.484-11.693,11.852s-8.691-4.741-12.8-5.057-7.111.79-5.056,1.9,9.007.362,12.325,3.184,6,4.559-.158,5.823-17.224.474-19.436-4.266Z" transform="translate(-510.887 -962.24)" fill="#a8d29f"/>
        <path id="Path_81026" data-name="Path 81026" d="M564.706,1017.06s-33.184,10.745-36.976,22.755a25.208,25.208,0,0,1-3.161,11.535,21.886,21.886,0,0,0-2.2,17.231l1.317-.354s-1.151-9.386,1.022-14.821c.089-.2.217-.487.378-.838h0c.4-.776.663-1.347.832-1.76,1.183-2.427,2.888-5.589,4.025-6.252C529.942,1044.56,522.515,1034.13,564.706,1017.06Z" transform="translate(-519.938 -1009.128)" fill="#82b378"/>
      </g>
      <path id="Path_81027" data-name="Path 81027" d="M424.787,1377.55A23.215,23.215,0,0,0,448,1354.342l-46.43,0a23.214,23.214,0,0,0,23.212,23.21Z" transform="translate(-377.905 -1297.584)" fill="#f1a34f"/>
      <path id="Path_81028" data-name="Path 81028" d="M447.216,1377.38a23.232,23.232,0,0,1-26.1-23.038h5.767a23.219,23.219,0,0,0,20.332,23.038Z" transform="translate(-394.621 -1297.583)" fill="#ffb973"/>
      <path id="Path_81029" data-name="Path 81029" d="M443.563,1503.69H402.22a2.864,2.864,0,0,0-2.864,2.864h47.071a2.864,2.864,0,0,0-2.864-2.864Z" transform="translate(-376.009 -1425.32)" fill="#f1a34f"/>
      <path id="Path_81030" data-name="Path 81030" d="M443.663,1354.34H396.654a.356.356,0,1,0,0,.712h47.009a.356.356,0,1,0,0-.712Z" transform="translate(-373.394 -1297.583)" fill="#d86713"/>
    </g>
    <g id="Group_170125" data-name="Group 170125" transform="translate(1182 530.514)">
      <path id="Path_81022-2" data-name="Path 81022" d="M569.443,1186.69s-8.14,6.053-9.727,5.686,5.949-6.534,5.949-6.534c-2.836-1.364-11.651-.509-11.651-.509s-2.936,9.469-4.384,8.723,3.028-8.252,3.028-8.252c-3.159-.19-7.032,2.155-7.032,2.155-5.3,4.188.349,10.782.349,10.782a16.119,16.119,0,0,1-4.437,6.228,13.993,13.993,0,0,0-5.115,9.858l.868.078s1.376-5.887,3.877-8.671c.1-.1.239-.245.413-.421.407-.377.693-.661.885-.871,1.245-1.2,2.965-2.72,3.794-2.867a1.6,1.6,0,0,1-.035-.417c.011.133.023.271.035.417.284,3.332,6.749,6.243,10.727,6.841s2.748-1.036,1.378-3.461-5.708-3.509-6.7-4.625,1.056-1.119,3.453-.024,2.724,4.013,6.569,5.854,9.629-4.538,9.629-4.538c-3.064-.155-7.439-3.483-7.281-4.5s7.427,1.756,8.669,1.889,4.07-1.412,4.507-6.417S569.443,1186.69,569.443,1186.69Z" transform="translate(-493.234 -1152.816)" fill="#82b378"/>
      <g id="Group_166577-2" data-name="Group 166577" transform="translate(0 14.352)">
        <path id="Path_81023-2" data-name="Path 81023" d="M271.043,1084.67s8.991-5.035,4.8-11.868c0,0-3.356-4.2-6.953-5.275,0,0,1.918,10.19,0,10.429s-1.319-11.508-1.319-11.508-9.47-4.555-13.187-4.2c0,0,5.874,9.95,3.956,9.71s-8.511-10.309-8.511-10.309-9.71-1.8-11.268,3.956.959,8.631,2.4,8.991,10.669.24,10.429,1.438-6.473,3.117-9.95,2.038c0,0,3.836,9.47,8.871,8.991s6.593-3.6,9.71-3.836,5.394.6,3.836,1.438-6.833.275-9.35,2.415-4.555,3.459.12,4.418,13.067.36,14.745-3.237Z" transform="translate(-238.065 -1061.39)" fill="#a8d29f"/>
        <path id="Path_81024-2" data-name="Path 81024" d="M302.553,1128.99a19.123,19.123,0,0,1-2.4-8.751c-2.877-9.111-28.051-17.262-28.051-17.262,32.007,12.947,26.373,20.859,26.373,20.859.863.5,2.156,2.9,3.053,4.743.128.313.33.747.631,1.335h0c.122.266.219.484.287.636,1.648,4.123.775,11.244.775,11.244l1,.268a16.6,16.6,0,0,0-1.668-13.072Z" transform="translate(-267.177 -1096.96)" fill="#82b378"/>
      </g>
      <g id="Group_166578-2" data-name="Group 166578" transform="translate(39.49)">
        <path id="Path_81025-2" data-name="Path 81025" d="M518.678,992.931s-11.851-6.637-6.321-15.644c0,0,4.424-5.531,9.165-6.953,0,0-2.528,13.432,0,13.748s1.738-15.17,1.738-15.17,12.484-6,17.382-5.531c0,0-7.743,13.116-5.215,12.8s11.219-13.59,11.219-13.59,12.8-2.37,14.854,5.215-1.264,11.377-3.16,11.851-14.064.316-13.748,1.9,8.533,4.109,13.116,2.686c0,0-5.057,12.484-11.693,11.852s-8.691-4.741-12.8-5.057-7.111.79-5.056,1.9,9.007.362,12.325,3.184,6,4.559-.158,5.823-17.224.474-19.436-4.266Z" transform="translate(-510.887 -962.24)" fill="#a8d29f"/>
        <path id="Path_81026-2" data-name="Path 81026" d="M564.706,1017.06s-33.184,10.745-36.976,22.755a25.208,25.208,0,0,1-3.161,11.535,21.886,21.886,0,0,0-2.2,17.231l1.317-.354s-1.151-9.386,1.022-14.821c.089-.2.217-.487.378-.838h0c.4-.776.663-1.347.832-1.76,1.183-2.427,2.888-5.589,4.025-6.252C529.942,1044.56,522.515,1034.13,564.706,1017.06Z" transform="translate(-519.938 -1009.128)" fill="#82b378"/>
      </g>
      <path id="Path_81027-2" data-name="Path 81027" d="M424.787,1377.55A23.215,23.215,0,0,0,448,1354.342l-46.43,0a23.214,23.214,0,0,0,23.212,23.21Z" transform="translate(-377.905 -1297.584)" fill="#f1a34f"/>
      <path id="Path_81028-2" data-name="Path 81028" d="M447.216,1377.38a23.232,23.232,0,0,1-26.1-23.038h5.767a23.219,23.219,0,0,0,20.332,23.038Z" transform="translate(-394.621 -1297.583)" fill="#ffb973"/>
      <path id="Path_81029-2" data-name="Path 81029" d="M443.563,1503.69H402.22a2.864,2.864,0,0,0-2.864,2.864h47.071a2.864,2.864,0,0,0-2.864-2.864Z" transform="translate(-376.009 -1425.32)" fill="#f1a34f"/>
      <path id="Path_81030-2" data-name="Path 81030" d="M443.663,1354.34H396.654a.356.356,0,1,0,0,.712h47.009a.356.356,0,1,0,0-.712Z" transform="translate(-373.394 -1297.583)" fill="#d86713"/>
    </g>
  </g>
</svg>
